<?xml version="1.0" standalone="no"?><!DOCTYPE svg PUBLIC "-//W3C//DTD SVG 1.1//EN" "http://www.w3.org/Graphics/SVG/1.1/DTD/svg11.dtd"><svg xmlns:xlink="http://www.w3.org/1999/xlink" version="1.1" style="font-family:'lucida grande', 'lucida sans unicode', arial, helvetica, sans-serif;font-size:12px;" xmlns="http://www.w3.org/2000/svg" width="600" height="400"><desc>Created with Highcharts 4.2.7</desc><defs><clipPath id="highcharts-5"><rect x="1" y="1" width="290" height="501"></rect></clipPath></defs><rect x="87" y="36" width="503" height="292" fill="#ffffff"></rect><path fill="rgb(255, 255, 255)" fill-opacity=" .5" d="M 86.5 36 L 86.5 328 142.5 328 142.5 36"></path><path fill="rgb(255, 255, 255)" fill-opacity=" .5" d="M 198.5 36 L 198.5 328 254.5 328 254.5 36"></path><path fill="rgb(255, 255, 255)" fill-opacity=" .5" d="M 310.5 36 L 310.5 328 365.5 328 365.5 36"></path><path fill="rgb(255, 255, 255)" fill-opacity=" .5" d="M 421.5 36 L 421.5 328 477.5 328 477.5 36"></path><path fill="rgb(255, 255, 255)" fill-opacity=" .5" d="M 533.5 36 L 533.5 328 589.5 328 589.5 36"></path><g class="highcharts-grid"></g><g class="highcharts-grid"><path fill="none" d="M 86.5 36 L 86.5 328" stroke="#C0C0C0" stroke-width="1" opacity="1"></path><path fill="none" d="M 142.5 36 L 142.5 328" stroke="#C0C0C0" stroke-width="1" opacity="1"></path><path fill="none" d="M 198.5 36 L 198.5 328" stroke="#C0C0C0" stroke-width="1" opacity="1"></path><path fill="none" d="M 254.5 36 L 254.5 328" stroke="#C0C0C0" stroke-width="1" opacity="1"></path><path fill="none" d="M 310.5 36 L 310.5 328" stroke="#C0C0C0" stroke-width="1" opacity="1"></path><path fill="none" d="M 365.5 36 L 365.5 328" stroke="#C0C0C0" stroke-width="1" opacity="1"></path><path fill="none" d="M 421.5 36 L 421.5 328" stroke="#C0C0C0" stroke-width="1" opacity="1"></path><path fill="none" d="M 477.5 36 L 477.5 328" stroke="#C0C0C0" stroke-width="1" opacity="1"></path><path fill="none" d="M 533.5 36 L 533.5 328" stroke="#C0C0C0" stroke-width="1" opacity="1"></path><path fill="none" d="M 590.5 36 L 590.5 328" stroke="#C0C0C0" stroke-width="1" opacity="1"></path></g><rect x="87" y="36" width="503" height="292" stroke="#026FC1" stroke-width="2" fill="none"></rect><g class="highcharts-axis"><path fill="none" d="M 87 78.5 L 77 78.5" stroke="#C0D0E0" stroke-width="1" opacity="1"></path><path fill="none" d="M 87 119.5 L 77 119.5" stroke="#C0D0E0" stroke-width="1" opacity="1"></path><path fill="none" d="M 87 161.5 L 77 161.5" stroke="#C0D0E0" stroke-width="1" opacity="1"></path><path fill="none" d="M 87 203.5 L 77 203.5" stroke="#C0D0E0" stroke-width="1" opacity="1"></path><path fill="none" d="M 87 245.5 L 77 245.5" stroke="#C0D0E0" stroke-width="1" opacity="1"></path><path fill="none" d="M 87 286.5 L 77 286.5" stroke="#C0D0E0" stroke-width="1" opacity="1"></path><path fill="none" d="M 87 328.5 L 77 328.5" stroke="#C0D0E0" stroke-width="1" opacity="1"></path><path fill="none" d="M 87 35.5 L 77 35.5" stroke="#C0D0E0" stroke-width="1" opacity="1"></path><path fill="none" d="M 86.5 36 L 86.5 328" stroke="#C0D0E0" stroke-width="1"></path></g><g class="highcharts-axis"><path fill="none" d="M 86.5 328 L 86.5 338" stroke="#C0D0E0" stroke-width="1" opacity="1"></path><path fill="none" d="M 142.5 328 L 142.5 338" stroke="#C0D0E0" stroke-width="1" opacity="1"></path><path fill="none" d="M 198.5 328 L 198.5 338" stroke="#C0D0E0" stroke-width="1" opacity="1"></path><path fill="none" d="M 254.5 328 L 254.5 338" stroke="#C0D0E0" stroke-width="1" opacity="1"></path><path fill="none" d="M 310.5 328 L 310.5 338" stroke="#C0D0E0" stroke-width="1" opacity="1"></path><path fill="none" d="M 365.5 328 L 365.5 338" stroke="#C0D0E0" stroke-width="1" opacity="1"></path><path fill="none" d="M 421.5 328 L 421.5 338" stroke="#C0D0E0" stroke-width="1" opacity="1"></path><path fill="none" d="M 477.5 328 L 477.5 338" stroke="#C0D0E0" stroke-width="1" opacity="1"></path><path fill="none" d="M 533.5 328 L 533.5 338" stroke="#C0D0E0" stroke-width="1" opacity="1"></path><path fill="none" d="M 590.5 328 L 590.5 338" stroke="#C0D0E0" stroke-width="1" opacity="1"></path></g><g class="highcharts-series-group"><g class="highcharts-series highcharts-series-0" transform="translate(590,328) rotate(90) scale(-1,1) scale(1 1)" width="503" height="292" clip-path="url(#highcharts-5)"><rect x="260.5" y="205.5" width="21" height="298" stroke="#FFFFFF" stroke-width="1" fill="#24b5d4" rx="0" ry="0"></rect><rect x="218.5" y="108.5" width="21" height="395" stroke="#FFFFFF" stroke-width="1" fill="#ED561B" rx="0" ry="0"></rect><rect x="177.5" y="54.5" width="21" height="449" stroke="#FFFFFF" stroke-width="1" fill="#DDDF00" rx="0" ry="0"></rect><rect x="135.5" y="496.5" width="21" height="7" stroke="#FFFFFF" stroke-width="1" fill="#24e52a" rx="0" ry="0"></rect><rect x="93.5" y="496.5" width="21" height="7" stroke="#FFFFFF" stroke-width="1" fill="#b185e5" rx="0" ry="0"></rect><rect x="52.5" y="495.5" width="21" height="8" stroke="#FFFFFF" stroke-width="1" fill="#FF9655" rx="0" ry="0"></rect><rect x="10.5" y="496.5" width="21" height="7" stroke="#FFFFFF" stroke-width="1" fill="#2159df" rx="0" ry="0"></rect></g><g class="highcharts-markers highcharts-series-0" transform="translate(590,328) rotate(90) scale(-1,1) scale(1 1)" width="503" height="292" clip-path="none"></g><g class="highcharts-series highcharts-series-1" transform="translate(590,328) rotate(90) scale(-1,1) scale(1 1)" width="503" height="292" clip-path="url(#highcharts-5)"></g><g class="highcharts-markers highcharts-series-1" transform="translate(590,328) rotate(90) scale(-1,1) scale(1 1)" width="503" height="292" clip-path="none"></g></g><text x="300" text-anchor="middle" class="highcharts-title" style="color:#000000;font-size:10px;font-family:'arial', sans-serif;text-transform:none;fill:#000000;width:536px;" y="17"><tspan>sorting comparison</tspan></text><g class="highcharts-data-labels highcharts-series-0" transform="translate(87,36) scale(1 1)" opacity="1"><g style="cursor:pointer;" transform="translate(298,11)"><text x="5" style="font-size:10px;font-weight:bold;font-family:'arial', sans-serif;color:#000000;text-shadow:0 0 6px #ffffff, 0 0 3px #ffffff;fill:#000000;text-rendering:geometricprecision;" y="15"><tspan>0.533568</tspan></text></g><g style="cursor:pointer;" transform="translate(395,53)"><text x="5" style="font-size:10px;font-weight:bold;font-family:'arial', sans-serif;color:#000000;text-shadow:0 0 6px #ffffff, 0 0 3px #ffffff;fill:#000000;text-rendering:geometricprecision;" y="15"><tspan>0.706562</tspan></text></g><g style="cursor:pointer;" transform="translate(449,94)"><text x="5" style="font-size:10px;font-weight:bold;font-family:'arial', sans-serif;color:#000000;text-shadow:0 0 6px #ffffff, 0 0 3px #ffffff;fill:#000000;text-rendering:geometricprecision;" y="15"><tspan>0.802765</tspan></text></g><g style="cursor:pointer;" transform="translate(7,136)"><text x="5" style="font-size:10px;font-weight:bold;font-family:'arial', sans-serif;color:#000000;text-shadow:0 0 6px #ffffff, 0 0 3px #ffffff;fill:#000000;text-rendering:geometricprecision;" y="15"><tspan>0.012992</tspan></text></g><g style="cursor:pointer;" transform="translate(7,178)"><text x="5" style="font-size:10px;font-weight:bold;font-family:'arial', sans-serif;color:#000000;text-shadow:0 0 6px #ffffff, 0 0 3px #ffffff;fill:#000000;text-rendering:geometricprecision;" y="15"><tspan>0.013078</tspan></text></g><g style="cursor:pointer;" transform="translate(8,219)"><text x="5" style="font-size:10px;font-weight:bold;font-family:'arial', sans-serif;color:#000000;text-shadow:0 0 6px #ffffff, 0 0 3px #ffffff;fill:#000000;text-rendering:geometricprecision;" y="15"><tspan>0.013672</tspan></text></g><g style="cursor:pointer;" transform="translate(7,261)"><text x="5" style="font-size:10px;font-weight:bold;font-family:'arial', sans-serif;color:#000000;text-shadow:0 0 6px #ffffff, 0 0 3px #ffffff;fill:#000000;text-rendering:geometricprecision;" y="15"><tspan>0.01295</tspan></text></g></g><g class="highcharts-data-labels highcharts-series-1" transform="translate(87,36) scale(1 1)" opacity="1"></g><g class="highcharts-legend" transform="translate(259,359)"><g><g><g class="highcharts-legend-item" transform="translate(8,3)"><text x="21" style="color:#333;font-size:9pt;font-weight:normal;cursor:pointer;font-family:'lucida grande','lucida sans unicode',arial,helvetica,sans-serif;text-transform:none;fill:#333;" text-anchor="start" y="15"><tspan>Series 1</tspan></text><rect x="0" y="4" width="16" height="12" fill="#CCC"></rect></g></g></g></g><g class="highcharts-axis-labels highcharts-xaxis-labels"><text x="72" style="color:#000000;cursor:default;font-size:10px;font-family:'arial', sans-serif;text-transform:none;font-weight:normal;fill:#000000;width:188px;text-overflow:clip;" text-anchor="end" transform="translate(0,0)" y="61" opacity="1"><tspan>Bubble Sort</tspan></text><text x="72" style="color:#000000;cursor:default;font-size:10px;font-family:'arial', sans-serif;text-transform:none;font-weight:normal;fill:#000000;width:188px;text-overflow:clip;" text-anchor="end" transform="translate(0,0)" y="103" opacity="1"><tspan>Bucket Sort</tspan></text><text x="72" style="color:#000000;cursor:default;font-size:10px;font-family:'arial', sans-serif;text-transform:none;font-weight:normal;fill:#000000;width:188px;text-overflow:clip;" text-anchor="end" transform="translate(0,0)" y="145" opacity="1"><tspan>Heap Sort</tspan></text><text x="72" style="color:#000000;cursor:default;font-size:10px;font-family:'arial', sans-serif;text-transform:none;font-weight:normal;fill:#000000;width:188px;text-overflow:clip;" text-anchor="end" transform="translate(0,0)" y="187" opacity="1"><tspan>Insertion Sort</tspan></text><text x="72" style="color:#000000;cursor:default;font-size:10px;font-family:'arial', sans-serif;text-transform:none;font-weight:normal;fill:#000000;width:188px;text-overflow:clip;" text-anchor="end" transform="translate(0,0)" y="228" opacity="1"><tspan>Merge Sort</tspan></text><text x="72" style="color:#000000;cursor:default;font-size:10px;font-family:'arial', sans-serif;text-transform:none;font-weight:normal;fill:#000000;width:188px;text-overflow:clip;" text-anchor="end" transform="translate(0,0)" y="270" opacity="1"><tspan>Quick Sort</tspan></text><text x="72" style="color:#000000;cursor:default;font-size:10px;font-family:'arial', sans-serif;text-transform:none;font-weight:normal;fill:#000000;width:188px;text-overflow:clip;" text-anchor="end" transform="translate(0,0)" y="312" opacity="1"><tspan>Selection Sort</tspan></text></g><g class="highcharts-axis-labels highcharts-yaxis-labels"><text x="87" style="color:#000000;cursor:default;font-size:10px;font-family:'arial', sans-serif;text-transform:none;font-weight:normal;fill:#000000;" text-anchor="middle" transform="translate(0,0)" y="346" opacity="1">0</text><text x="142.88888888888889" style="color:#000000;cursor:default;font-size:10px;font-family:'arial', sans-serif;text-transform:none;font-weight:normal;fill:#000000;" text-anchor="middle" transform="translate(0,0)" y="346" opacity="1">0.1</text><text x="198.77777777777777" style="color:#000000;cursor:default;font-size:10px;font-family:'arial', sans-serif;text-transform:none;font-weight:normal;fill:#000000;" text-anchor="middle" transform="translate(0,0)" y="346" opacity="1">0.2</text><text x="254.66666666666666" style="color:#000000;cursor:default;font-size:10px;font-family:'arial', sans-serif;text-transform:none;font-weight:normal;fill:#000000;" text-anchor="middle" transform="translate(0,0)" y="346" opacity="1">0.3</text><text x="310.55555555555554" style="color:#000000;cursor:default;font-size:10px;font-family:'arial', sans-serif;text-transform:none;font-weight:normal;fill:#000000;" text-anchor="middle" transform="translate(0,0)" y="346" opacity="1">0.4</text><text x="366.44444444444446" style="color:#000000;cursor:default;font-size:10px;font-family:'arial', sans-serif;text-transform:none;font-weight:normal;fill:#000000;" text-anchor="middle" transform="translate(0,0)" y="346" opacity="1">0.5</text><text x="422.3333333333333" style="color:#000000;cursor:default;font-size:10px;font-family:'arial', sans-serif;text-transform:none;font-weight:normal;fill:#000000;" text-anchor="middle" transform="translate(0,0)" y="346" opacity="1">0.6</text><text x="478.22222222222223" style="color:#000000;cursor:default;font-size:10px;font-family:'arial', sans-serif;text-transform:none;font-weight:normal;fill:#000000;" text-anchor="middle" transform="translate(0,0)" y="346" opacity="1">0.7</text><text x="534.1111111111111" style="color:#000000;cursor:default;font-size:10px;font-family:'arial', sans-serif;text-transform:none;font-weight:normal;fill:#000000;" text-anchor="middle" transform="translate(0,0)" y="346" opacity="1">0.8</text><text x="583.0546875" style="color:#000000;cursor:default;font-size:10px;font-family:'arial', sans-serif;text-transform:none;font-weight:normal;fill:#000000;" text-anchor="middle" transform="translate(0,0)" y="346" opacity="1">0.9</text></g><g class="highcharts-tooltip" display="none" style="cursor:default;padding:0;pointer-events:none;white-space:nowrap;" transform="translate(0,0)"><path fill="none" d="M 3.5 0.5 L 13.5 0.5 C 16.5 0.5 16.5 0.5 16.5 3.5 L 16.5 13.5 C 16.5 16.5 16.5 16.5 13.5 16.5 L 3.5 16.5 C 0.5 16.5 0.5 16.5 0.5 13.5 L 0.5 3.5 C 0.5 0.5 0.5 0.5 3.5 0.5"  stroke="black" stroke-opacity="0.049999999999999996" stroke-width="5" transform="translate(1, 1)"></path><path fill="none" d="M 3.5 0.5 L 13.5 0.5 C 16.5 0.5 16.5 0.5 16.5 3.5 L 16.5 13.5 C 16.5 16.5 16.5 16.5 13.5 16.5 L 3.5 16.5 C 0.5 16.5 0.5 16.5 0.5 13.5 L 0.5 3.5 C 0.5 0.5 0.5 0.5 3.5 0.5"  stroke="black" stroke-opacity="0.09999999999999999" stroke-width="3" transform="translate(1, 1)"></path><path fill="none" d="M 3.5 0.5 L 13.5 0.5 C 16.5 0.5 16.5 0.5 16.5 3.5 L 16.5 13.5 C 16.5 16.5 16.5 16.5 13.5 16.5 L 3.5 16.5 C 0.5 16.5 0.5 16.5 0.5 13.5 L 0.5 3.5 C 0.5 0.5 0.5 0.5 3.5 0.5"  stroke="black" stroke-opacity="0.15" stroke-width="1" transform="translate(1, 1)"></path><path fill="rgb(255, 255, 255)" fill-opacity=" 0.85" d="M 3.5 0.5 L 13.5 0.5 C 16.5 0.5 16.5 0.5 16.5 3.5 L 16.5 13.5 C 16.5 16.5 16.5 16.5 13.5 16.5 L 3.5 16.5 C 0.5 16.5 0.5 16.5 0.5 13.5 L 0.5 3.5 C 0.5 0.5 0.5 0.5 3.5 0.5"></path><text x="8" style="font-size:12px;color:#000000;fill:#000000;" y="20"></text></g><text x="590" text-anchor="end" style="cursor:pointer;color:#909090;font-size:9px;fill:#909090;" y="395">meta-chart.com</text></svg>